<?xml version="1.0" standalone="no"?> <!DOCTYPE svg PUBLIC "-//W3C//DTD SVG 1.0//EN" "http://www.w3.org/TR/2001/REC-SVG-20010904/DTD/svg10.dtd" > <svg xmlns="http://www.w3.org/2000/svg" width="100%" height="100%">
<defs >
<font id="dinm" horiz-adv-x="252" ><font-face
    font-family="DIN-Medium"
    units-per-em="1000"
    panose-1="0 0 0 0 0 0 0 0 0 0"
    ascent="1000"
    descent="-208"
    alphabetic="0" />
<missing-glyph horiz-adv-x="789" d="M49 0V789H740V0H49ZM691 49V740H98V49H691Z" />
<glyph unicode=" " glyph-name="space" horiz-adv-x="240" />
<glyph unicode="!" glyph-name="exclam" horiz-adv-x="332" d="M223 212H143L121 712H245L223 212ZM127 0V109H239V0H127Z" />
<glyph unicode="&quot;" glyph-name="quotedbl" horiz-adv-x="444" d="M265 521V712H366V521H265ZM78 521V712H179V521H78Z" />
<glyph unicode="#" glyph-name="numbersign" horiz-adv-x="672" d="M531 426L511 302H590V208H496L463 0H357L390 208H253L221 0H114L147 208H68V302H162L182 426H101V520H196L227 716H334L303 520H439L470 716H576L545 520H623V426H531ZM288 426L268 302H405L424
426H288Z" />
<glyph unicode="$" glyph-name="dollar" horiz-adv-x="608" d="M340 -3V-114H258V-6Q187 -6 133 17T30 88L102 159Q138 123 178 107T267 91V313L241 316Q201 321 165 336T92 387T54 509Q54 595 108 651T258 716V806H340V717Q397 717 443 697T531 637L462 569Q436
594 402 608T331 623V407L365 402Q413 395 443 383T515 334T556 203Q556 115 498 61T340 -3ZM267 622Q216 617 188 588T159 513Q159 471 180 452T221 425T267 414V622ZM421 274Q404 289 384 294T331 305V93Q387 98 418 126T449 200Q449 249 421 274Z" />
<glyph unicode="%" glyph-name="percent" horiz-adv-x="842" d="M644 -7Q584 -7 544 30T504 130V231Q504 295 543 331T644 368Q704 368 744 331T784 231V130Q784 66 745 30T644 -7ZM294 0H212L548 712H629L294 0ZM198 345Q137 345 98 381T58 481V582Q58 646 97
682T198 719Q258 719 298 682T338 582V481Q338 418 299 382T198 345ZM707 228Q707 300 644 300Q581 300 581 228V133Q581 61 644 61Q707 61 707 133V228ZM261 579Q261 651 198 651Q135 651 135 579V484Q135 413 198 413Q261 413 261 484V579Z" />
<glyph unicode="&amp;" glyph-name="ampersand" horiz-adv-x="730" d="M553 0L495 70Q458 38 414 16T298 -6Q188 -6 128 51T68 206Q68 273 105 318T209 407Q166 457 151 491T135 560Q135 629 182 673T309 718Q384 718 431 673T478 559Q478 520 458 489T402 433L350
397L500 218Q538 272 538 361H636Q636 225 565 142L684 0H553ZM309 629Q277 629 258 609T239 559Q239 539 252 517T294 461L328 484Q353 501 366 518T380 558Q380 588 361 608T309 629ZM265 343Q217 310 193 281T169 208Q169 155 205 121T298 87Q337 87 368 99T434
142L265 343Z" />
<glyph unicode="&apos;" glyph-name="quotesingle" horiz-adv-x="257" d="M78 521V712H179V521H78Z" />
<glyph unicode="(" glyph-name="parenleft" horiz-adv-x="317" d="M190 -94Q154 -58 138 -41T109 1T91 53T86 117V595Q86 634 90 659T108 709T137 751T190 806L259 737Q243 721 228 706T201 666T188 589V123Q188 70 200 47T227 7Q243 -9 259 -25L190 -94Z" />
<glyph unicode=")" glyph-name="parenright" horiz-adv-x="317" d="M208 1Q194 -24 180 -40T128 -94L58 -24Q73 -8 89 7Q102 22 115 46T128 123V589Q128 641 116 664T93 700T58 736L128 806Q157 777 176 755T209 709T227 658T232 595V117Q232 81 228 54T208 1Z" />
<glyph unicode="*" glyph-name="asterisk" horiz-adv-x="485" d="M387 401L276 470L280 339H205L209 470L98 401L61 466L176 527L61 589L98 654L209 585L205 715H280L276 585L387 654L424 589L309 527L424 466L387 401Z" />
<glyph unicode="+" glyph-name="plus" horiz-adv-x="533" d="M314 225V57H219V225H51V320H219V487H314V320H482V225H314Z" />
<glyph unicode="," glyph-name="comma" horiz-adv-x="272" d="M78 -155V116H194V-60L78 -155Z" />
<glyph unicode="-" glyph-name="hyphen" horiz-adv-x="426" d="M67 230V325H359V230H67Z" />
<glyph unicode="." glyph-name="period" horiz-adv-x="278" d="M78 0V122H200V0H78Z" />
<glyph unicode="/" glyph-name="slash" horiz-adv-x="380" d="M98 -74H0L285 786H383L98 -74Z" />
<glyph unicode="0" glyph-name="zero" horiz-adv-x="533" d="M266 -6Q178 -6 120 49T61 198V514Q61 607 119 662T266 718Q353 718 412 663T472 514V198Q472 105 414 50T266 -6ZM370 511Q370 564 343 595T266 627Q218 627 191 596T163 511V201Q163 148 190 117T266
85Q314 85 342 117T370 201V511Z" />
<glyph unicode="1" glyph-name="one" horiz-adv-x="533" d="M253 0V601L114 479V592L253 712H355V0H253Z" />
<glyph unicode="2" glyph-name="two" horiz-adv-x="533" d="M63 0V91L337 424Q375 470 375 519Q375 568 348 597T271 627Q226 627 196 600T166 517H64Q64 607 121 662T271 718Q363 718 420 664T477 518Q477 474 462 441T410 364L187 91H477V0H63Z" />
<glyph unicode="3" glyph-name="three" horiz-adv-x="533" d="M260 -7Q166 -7 104 43T42 193H144Q144 140 178 113T260 85Q311 85 343 116T376 203Q376 258 346 289T257 320H240V409H257Q312 409 338 437T365 517Q365 570 336 598T260 627Q212 627 183 600T153
525H51Q51 613 111 666T260 719Q351 719 409 664T467 520Q467 465 444 427T378 368Q426 347 452 306T478 200Q478 101 416 47T260 -7Z" />
<glyph unicode="4" glyph-name="four" horiz-adv-x="533" d="M422 107V0H323V107H35V202L286 712H396L146 202H323V368H422V202H498V107H422Z" />
<glyph unicode="5" glyph-name="five" horiz-adv-x="533" d="M419 49Q393 23 356 8T269 -7Q221 -7 182 8T116 49T77 110T63 184H165Q178 85 269 85Q315 85 339 109T370 164T377 238Q377 308 354 347T273 387Q232 387 207 369T172 323H79V712H463V621H171V433Q210
474 289 474Q330 474 362 463T423 422T466 345T479 238Q479 172 468 129T419 49Z" />
<glyph unicode="6" glyph-name="six" horiz-adv-x="533" d="M267 -6Q173 -6 115 51T56 207Q56 247 69 288T109 382L271 712H380L227 406Q238 411 256 414T290 417Q369 417 423 360T477 211Q477 113 419 54T267 -6ZM266 332Q217 332 188 300T158 209Q158 153 188
119T266 85Q314 85 344 118T375 209Q375 263 346 297T266 332Z" />
<glyph unicode="7" glyph-name="seven" horiz-adv-x="533" d="M249 0H139L378 621H161V509H63V712H487V621L249 0Z" />
<glyph unicode="8" glyph-name="eight" horiz-adv-x="533" d="M266 -6Q172 -6 110 50T47 201Q47 260 74 301T145 368Q107 391 83 429T59 521Q59 608 118 663T266 718Q354 718 414 663T474 521Q474 467 451 430T388 368Q432 341 459 301T486 201Q486 107 424 51T266
-6ZM266 627Q219 627 190 596T161 518Q161 470 190 440T266 410Q313 410 342 440T372 518Q372 566 343 596T266 627ZM266 322Q216 322 183 288T149 203Q149 153 182 119T266 85Q315 85 349 119T383 203Q383 253 350 287T266 322Z" />
<glyph unicode="9" glyph-name="nine" horiz-adv-x="533" d="M424 330L262 0H153L306 306Q280 295 242 295Q163 295 110 351T56 501Q56 599 114 658T266 718Q360 718 418 661T477 505Q477 465 464 424T424 330ZM266 627Q217 627 188 594T158 503Q158 448 186 414T266
380Q315 380 345 413T375 503Q375 559 345 593T266 627Z" />
<glyph unicode=":" glyph-name="colon" horiz-adv-x="303" d="M104 285V407H225V285H104ZM104 0V122H225V0H104Z" />
<glyph unicode=";" glyph-name="semicolon" horiz-adv-x="303" d="M104 285V407H225V285H104ZM106 -155V116H222V-60L106 -155Z" />
<glyph unicode="&lt;" glyph-name="less" horiz-adv-x="1027" d="M230 229L575 -114H444L52 277L444 669H575L230 326H974V229H230Z" />
<glyph unicode="=" glyph-name="equal" horiz-adv-x="533" d="M51 327V422H482V327H51ZM51 133V228H482V133H51Z" />
<glyph unicode="&gt;" glyph-name="greater" horiz-adv-x="1027" d="M583 -114H452L797 229H52V326H797L452 669H583L975 277L583 -114Z" />
<glyph unicode="?" glyph-name="question" horiz-adv-x="511" d="M422 404L345 296Q327 271 327 242V212H225V247Q225 277 232 299T259 346L337 451Q352 471 360 489T368 527Q368 570 341 598T270 627Q225 627 199 598T173 526H71Q71 610 128 664T270 718Q355
718 412 666T470 527Q470 495 457 465T422 404ZM219 0V109H332V0H219Z" />
<glyph unicode="@" glyph-name="at" horiz-adv-x="736" d="M576 0V50Q528 -7 449 -7Q368 -7 329 36T282 119T273 234Q273 305 281 346T326 431T448 475Q526 475 574 419V480Q574 516 566 541T538 587T491 616T431 625H305Q271 625 246 617T199 587T171 543T163
480V168Q163 126 173 104T213 58L143 -12Q99 24 82 61T64 163V481Q64 540 77 581T122 655T196 701T295 715H441Q498 715 539 702T612 657T658 582T672 481V-2L576 0ZM472 389Q414 389 393 349T371 234Q371 161 392 121T472 80Q530 80 552 120T574 234Q574 309 553
349T472 389Z" />
<glyph unicode="A" glyph-name="A" horiz-adv-x="625" d="M502 0L453 143H172L123 0H8L269 712H356L617 0H502ZM315 551L204 235H423L315 551Z" />
<glyph unicode="B" glyph-name="B" horiz-adv-x="663" d="M381 0H93V712H370Q469 712 527 660T585 517Q585 463 557 423T489 366Q534 348 565 306T596 201Q596 105 538 53T381 0ZM361 615H201V411H361Q414 411 445 437T477 513Q477 562 446 588T361 615ZM371 314H201V97H371Q426
97 457 127T488 206Q488 255 458 284T371 314Z" />
<glyph unicode="C" glyph-name="C" horiz-adv-x="628" d="M323 -6Q212 -6 150 56T78 174T67 356Q67 481 77 537T150 656T323 718Q423 718 490 661T577 499H467Q454 556 418 588T323 621Q258 621 225 586T184 505T175 356Q175 247 183 205T224 127T323 91Q381 91
418 124T468 213H577Q559 108 491 51T323 -6Z" />
<glyph unicode="D" glyph-name="D" horiz-adv-x="666" d="M527 67Q494 34 447 17T343 0H93V712H343Q460 712 519 653T588 533T599 361V322Q599 231 587 173T527 67ZM453 567Q409 615 332 615H201V97H332Q409 97 443 135T484 221T491 361Q491 450 485 494T453 567Z" />
<glyph unicode="E" glyph-name="E" horiz-adv-x="603" d="M93 0V712H548V615H201V407H497V311H201V97H548V0H93Z" />
<glyph unicode="F" glyph-name="F" horiz-adv-x="585" d="M201 615V398H497V301H201V0H93V712H548V615H201Z" />
<glyph unicode="G" glyph-name="G" horiz-adv-x="649" d="M519 75Q479 33 431 14T323 -6Q212 -6 150 56T78 174T67 356Q67 481 77 537T150 656T323 718Q432 718 499 657T582 497H473Q459 556 421 588T323 621Q292 621 265 609T215 573T184 505T175 356Q175 247
183 205T224 127T323 91Q395 91 435 137T475 253V293H323V385H583V276Q583 206 569 160T519 75Z" />
<glyph unicode="H" glyph-name="H" horiz-adv-x="691" d="M490 0V311H201V0H93V712H201V408H490V712H598V0H490Z" />
<glyph unicode="I" glyph-name="I" horiz-adv-x="294" d="M93 0V712H201V0H93Z" />
<glyph unicode="J" glyph-name="J" horiz-adv-x="506" d="M186 -6Q132 -6 91 10T13 63L85 134Q107 112 128 102T186 91Q246 91 280 127T315 233V712H423V225Q423 117 356 56T186 -6Z" />
<glyph unicode="K" glyph-name="K" horiz-adv-x="658" d="M521 0L321 351L201 207V0H93V712H201V354L492 712H624L393 433L648 0H521Z" />
<glyph unicode="L" glyph-name="L" horiz-adv-x="574" d="M93 0V712H201V97H544V0H93Z" />
<glyph unicode="M" glyph-name="M" horiz-adv-x="813" d="M613 0V476L449 129H369L201 476V0H93V712H201L409 269L613 712H721V0H613Z" />
<glyph unicode="N" glyph-name="N" horiz-adv-x="722" d="M530 0L201 501V0H93V712H192L521 212V712H629V0H530Z" />
<glyph unicode="O" glyph-name="O" horiz-adv-x="646" d="M511 70Q435 -6 323 -6Q212 -6 150 56T78 174T67 356Q67 481 77 537T150 656T323 718Q380 718 426 699T515 638T568 538T579 356Q579 227 570 173T511 70ZM429 577Q410 598 383 609T323 621Q292 621 264
609T213 573T183 507T175 356Q175 244 182 205T213 140T263 103T323 91Q354 91 382 103T433 139T463 205T471 356Q471 468 464 507T429 577Z" />
<glyph unicode="P" glyph-name="P" horiz-adv-x="629" d="M363 280H201V0H93V712H363Q466 712 528 652T591 496Q591 402 528 341T363 280ZM357 615H201V378H357Q414 378 448 409T483 496Q483 552 449 583T357 615Z" />
<glyph unicode="Q" glyph-name="Q" horiz-adv-x="646" d="M543 -32L472 39Q408 -6 323 -6Q212 -6 150 56T78 174T67 356Q67 481 77 537T150 656T323 718Q380 718 426 699T515 638T568 538T579 356Q579 243 573 192T533 97L603 28L543 -32ZM429 577Q410 598 383
609T323 621Q292 621 264 609T213 573T183 507T175 356Q175 244 182 205T213 140T263 103T323 91Q364 91 396 114L321 189L381 249L450 180Q463 205 467 244T471 356Q471 468 464 507T429 577Z" />
<glyph unicode="R" glyph-name="R" horiz-adv-x="655" d="M486 0L336 300H201V0H93V712H369Q469 712 529 655T590 504Q590 431 551 382T448 315L612 0H486ZM361 615H201V392H361Q415 392 448 421T482 503Q482 555 449 585T361 615Z" />
<glyph unicode="S" glyph-name="S" horiz-adv-x="590" d="M282 -6Q200 -6 140 15T30 88L102 159Q139 122 183 107T284 91Q354 91 392 119T431 200Q431 249 411 267T373 293T325 304L241 316Q154 328 104 375T54 509Q54 603 118 660T292 718Q426 718 513 637L444
569Q413 599 375 611T289 624Q228 624 194 593T159 513Q159 471 186 447T266 414L347 402Q395 395 425 383T497 334T538 203Q538 106 468 50T282 -6Z" />
<glyph unicode="T" glyph-name="T" horiz-adv-x="560" d="M334 615V0H226V615H30V712H530V615H334Z" />
<glyph unicode="U" glyph-name="U" horiz-adv-x="675" d="M337 -6Q227 -6 155 62T82 240V712H190V245Q190 174 229 133T337 91Q404 91 444 132T485 245V712H593V240Q593 131 521 63T337 -6Z" />
<glyph unicode="V" glyph-name="V" horiz-adv-x="564" d="M323 0H239L5 712H117L281 194L445 712H559L323 0Z" />
<glyph unicode="W" glyph-name="W" horiz-adv-x="871" d="M674 0H580L435 499L291 0H197L11 712H125L249 203L392 712H479L622 203L746 712H860L674 0Z" />
<glyph unicode="X" glyph-name="X" horiz-adv-x="578" d="M443 0L288 273L134 0H10L230 365L24 712H148L288 457L429 712H553L347 365L568 0H443Z" />
<glyph unicode="Y" glyph-name="Y" horiz-adv-x="544" d="M326 293V0H218V293L5 712H123L272 399L421 712H539L326 293Z" />
<glyph unicode="Z" glyph-name="Z" horiz-adv-x="552" d="M48 0V93L377 615H62V712H504V624L173 97H504V0H48Z" />
<glyph unicode="[" glyph-name="bracketleft" horiz-adv-x="347" d="M86 -74V786H304V695H188V17H304V-74H86Z" />
<glyph unicode="\" glyph-name="backslash" horiz-adv-x="380" d="M282 -74L0 778H98L380 -74H282Z" />
<glyph unicode="]" glyph-name="bracketright" horiz-adv-x="347" d="M43 -74V16H161V696H43V786H261V-74H43Z" />
<glyph unicode="^" glyph-name="asciicircum" horiz-adv-x="571" d="M397 401L285 608L173 401H67L239 719H332L503 401H397Z" />
<glyph unicode="_" glyph-name="underscore" horiz-adv-x="571" d="M0 -172V-102H571V-172H0Z" />
<glyph unicode="`" glyph-name="grave" horiz-adv-x="500" d="M225 599L114 761H227L302 599H225Z" />
<glyph unicode="a" glyph-name="a" horiz-adv-x="530" d="M354 0V46Q325 17 296 6T219 -6Q129 -6 86 38T43 149Q43 215 88 255T218 295H352V331Q352 380 326 403T241 426Q200 426 176 416T130 377L63 440Q98 480 139 496T245 513Q454 513 454 339V0H354ZM352 224H233Q142
224 142 151Q142 79 235 79Q271 79 290 84T331 109T352 183V224Z" />
<glyph unicode="b" glyph-name="b" horiz-adv-x="553" d="M439 39Q394 -6 315 -6Q271 -6 240 7T181 54V0H81V712H183V456Q209 487 241 500T316 513Q394 513 433 474T484 379T496 254Q496 180 485 127T439 39ZM289 422Q226 422 205 378T183 254Q183 173 204 129T289
85Q352 85 373 129T394 254Q394 334 373 378T289 422Z" />
<glyph unicode="c" glyph-name="c" horiz-adv-x="485" d="M281 -6Q185 -6 120 57T55 254Q55 387 120 450T281 513Q335 513 373 497T448 442L378 374Q334 422 281 422Q221 422 189 381T157 254Q157 168 189 127T281 85Q312 85 332 95T378 133L448 66Q380 -6 281 -6Z" />
<glyph unicode="d" glyph-name="d" horiz-adv-x="553" d="M372 0V54Q345 21 314 8T238 -6Q200 -6 168 5T108 45T69 128T57 254Q57 348 72 394T123 477T237 513Q280 513 311 501T370 456V712H472V0H372ZM265 422Q202 422 181 378T159 254Q159 173 180 129T265 85Q328
85 349 129T370 254Q370 334 349 378T265 422Z" />
<glyph unicode="e" glyph-name="e" horiz-adv-x="539" d="M156 224Q156 157 189 120T285 82Q327 82 353 93T408 134L473 73Q432 32 390 13T283 -6Q178 -6 117 55T55 254Q55 376 113 444T270 513Q370 513 427 446T485 269V224H156ZM370 364Q358 393 332 410T270
428Q234 428 208 411T169 364T156 295H384Q384 332 370 364Z" />
<glyph unicode="f" glyph-name="f" horiz-adv-x="328" d="M199 420V0H97V420H39V498H97V576Q97 636 132 676T236 717H300V630H255Q199 630 199 571V498H300V420H199Z" />
<glyph unicode="g" glyph-name="g" horiz-adv-x="549" d="M251 -211Q194 -211 153 -196T72 -144L137 -79Q163 -103 186 -113T247 -124Q308 -124 337 -88T366 5V70Q340 39 308 26T235 12Q198 12 167 23T108 63T69 139T57 263Q57 337 68 386T119 474T236 513Q279
513 310 500T369 453V507H468V3Q468 -91 409 -151T251 -211ZM263 422Q201 422 180 379T159 263Q159 189 179 147T263 104Q325 104 345 146T366 263Q366 359 339 390T263 422Z" />
<glyph unicode="h" glyph-name="h" horiz-adv-x="566" d="M388 0V311Q388 366 360 394T286 422Q241 422 212 394T183 311V0H81V712H183V456Q236 513 314 513Q397 513 443 463T490 327V0H388Z" />
<glyph unicode="i" glyph-name="i" horiz-adv-x="264" d="M78 607V715H186V607H78ZM81 0V507H183V0H81Z" />
<glyph unicode="j" glyph-name="j" horiz-adv-x="264" d="M78 607V715H186V607H78ZM44 -207H-19V-120H26Q56 -120 68 -106T81 -61V507H183V-67Q183 -127 148 -167T44 -207Z" />
<glyph unicode="k" glyph-name="k" horiz-adv-x="548" d="M400 0L258 234L183 149V0H81V712H183V273L380 507H504L328 308L526 0H400Z" />
<glyph unicode="l" glyph-name="l" horiz-adv-x="311" d="M217 0Q148 0 113 39T78 140V712H180V146Q180 116 192 102T235 87H280V0H217Z" />
<glyph unicode="m" glyph-name="m" horiz-adv-x="877" d="M699 0V309Q699 366 671 394T597 422Q552 422 522 395T492 314V0H390V309Q390 366 362 394T288 422Q242 422 213 394T183 309V0H81V507H181V456Q206 483 242 498T316 513Q412 513 460 439Q521 513 619
513Q658 513 691 501T749 465T787 404T801 324V0H699Z" />
<glyph unicode="n" glyph-name="n" horiz-adv-x="568" d="M390 0V309Q390 366 362 394T288 422Q242 422 213 394T183 309V0H81V507H181V456Q234 513 316 513Q355 513 386 502T443 465T480 405T492 324V0H390Z" />
<glyph unicode="o" glyph-name="o" horiz-adv-x="537" d="M420 54Q393 26 356 10T268 -6Q219 -6 182 10T114 58T70 137T57 254Q57 322 70 370T113 449T181 497T268 513Q317 513 355 497T423 449T467 370T480 254Q480 185 467 137T420 54ZM343 393Q314 422 268
422Q223 422 198 397T166 338T159 254Q159 201 165 169T198 111T268 85Q313 85 338 110T371 170T378 254Q378 307 372 339T343 393Z" />
<glyph unicode="p" glyph-name="p" horiz-adv-x="553" d="M439 39Q394 -6 316 -6Q272 -6 241 6T183 52V-205H81V507H181V453Q208 486 239 499T315 513Q353 513 385 502T445 462T484 379T496 254Q496 180 485 127T439 39ZM289 422Q226 422 205 378T183 254Q183
173 204 129T289 85Q352 85 373 129T394 254Q394 334 373 378T289 422Z" />
<glyph unicode="q" glyph-name="q" horiz-adv-x="553" d="M370 -205V52Q344 21 311 8T237 -6Q159 -6 120 33T69 128T57 254Q57 348 72 394T123 477T238 513Q282 513 313 500T372 453V507H472V-205H370ZM265 422Q202 422 181 378T159 254Q159 173 180 129T265 85Q328
85 349 129T370 254Q370 334 349 378T265 422Z" />
<glyph unicode="r" glyph-name="r" horiz-adv-x="439" d="M360 388Q343 405 326 413T284 422Q241 422 212 391T183 308V0H81V507H181V452Q201 479 237 496T316 513Q356 513 382 503T437 465L360 388Z" />
<glyph unicode="s" glyph-name="s" horiz-adv-x="499" d="M245 -6Q176 -6 126 9T32 67L99 134Q127 105 165 93T245 81Q294 81 325 98T356 151Q356 179 340 195T288 211L207 218Q133 224 95 258T57 358Q57 431 110 472T248 513Q307 513 354 500T436 456L372 391Q350
410 317 419T247 428Q202 428 179 411T155 363Q155 338 170 324T225 305L305 298Q379 292 417 257T456 155Q456 78 398 36T245 -6Z" />
<glyph unicode="t" glyph-name="t" horiz-adv-x="342" d="M232 0Q165 0 129 41T93 141V420H35V498H93V652H195V498H293V420H195V146Q195 87 251 87H293V0H232Z" />
<glyph unicode="u" glyph-name="u" horiz-adv-x="568" d="M387 0V51Q334 -6 252 -6Q213 -6 182 5T125 42T88 102T76 183V507H178V198Q178 141 206 113T280 85Q326 85 355 113T385 198V507H487V0H387Z" />
<glyph unicode="v" glyph-name="v" horiz-adv-x="471" d="M277 0H194L8 507H116L236 150L355 507H463L277 0Z" />
<glyph unicode="w" glyph-name="w" horiz-adv-x="743" d="M577 0H490L371 354L253 0H165L8 507H116L214 150L332 507H411L528 150L626 507H735L577 0Z" />
<glyph unicode="x" glyph-name="x" horiz-adv-x="503" d="M358 0L252 173L145 0H22L196 259L29 507H152L252 342L351 507H474L308 259L481 0H358Z" />
<glyph unicode="y" glyph-name="y" horiz-adv-x="468" d="M240 -101Q226 -141 205 -162T157 -192T99 -201H58V-109H84Q116 -109 130 -98T157 -55L185 24L8 507H116L237 150L355 507H464L240 -101Z" />
<glyph unicode="z" glyph-name="z" horiz-adv-x="469" d="M43 0V81L295 416H57V507H421V426L167 91H421V0H43Z" />
<glyph unicode="{" glyph-name="braceleft" horiz-adv-x="407" d="M291 -74Q218 -74 183 -39T148 65V232Q148 274 130 292T82 311H45V401H82Q98 401 109 405T134 424T148 480V647Q148 684 156 708T191 759T291 786H362V695H323Q278 695 264 681T250 617V456Q250
412 232 391T184 356Q222 339 236 315T250 256V95Q250 46 264 32T323 17H362V-74H291Z" />
<glyph unicode="|" glyph-name="bar" horiz-adv-x="338" d="M118 -74V786H220V-74H118Z" />
<glyph unicode="}" glyph-name="braceright" horiz-adv-x="407" d="M326 311Q310 311 298 306T273 288T259 232V65Q259 28 251 4T216 -47T116 -74H45V17H84Q129 17 143 31T157 95V256Q157 291 170 314T224 356Q193 370 175 391T157 456V617Q157 666 143 680T84
695H45V786H116Q189 786 224 751T259 647V480Q259 438 277 420T326 401H362V311H326Z" />
<glyph unicode="~" glyph-name="asciitilde" horiz-adv-x="574" d="M383 202Q357 202 332 210T277 232T229 253T192 259Q168 259 152 252T107 215L43 279Q87 323 119 340T190 357Q217 357 241 350T294 328T342 307T381 300Q405 300 421 307T466 344L531 280Q487
236 455 219T383 202Z" />
</font>
</defs>
</svg>
